<svg width="80" height="80" viewBox="0 0 80 80" fill="none" xmlns="http://www.w3.org/2000/svg">
  <rect width="80" height="80" fill="white" stroke="#e5e7eb" stroke-width="1"/>
  <rect x="8" y="8" width="8" height="8" fill="black"/>
  <rect x="24" y="8" width="8" height="8" fill="black"/>
  <rect x="40" y="8" width="8" height="8" fill="black"/>
  <rect x="56" y="8" width="8" height="8" fill="black"/>
  <rect x="8" y="24" width="8" height="8" fill="black"/>
  <rect x="32" y="24" width="8" height="8" fill="black"/>
  <rect x="48" y="24" width="8" height="8" fill="black"/>
  <rect x="8" y="40" width="8" height="8" fill="black"/>
  <rect x="16" y="40" width="8" height="8" fill="black"/>
  <rect x="40" y="40" width="8" height="8" fill="black"/>
  <rect x="64" y="40" width="8" height="8" fill="black"/>
  <rect x="8" y="56" width="8" height="8" fill="black"/>
  <rect x="24" y="56" width="8" height="8" fill="black"/>
  <rect x="48" y="56" width="8" height="8" fill="black"/>
  <rect x="64" y="56" width="8" height="8" fill="black"/>
</svg>
